<svg width="67" height="68" viewBox="0 0 67 68" fill="none" xmlns="http://www.w3.org/2000/svg">
<ellipse cx="33.5" cy="34" rx="33.5" ry="34" fill="#116CDB" fill-opacity="0.0901961"/>
<path d="M17 26.75C17 24.886 18.9028 23.375 21.25 23.375H46.75C49.0972 23.375 51 24.886 51 26.75V40.25C51 42.114 49.0972 43.625 46.75 43.625H21.25C18.9028 43.625 17 42.114 17 40.25V26.75ZM21.25 25.0625C20.0764 25.0625 19.125 25.818 19.125 26.75V27.116L34 34.2035L48.875 27.116V26.75C48.875 25.818 47.9236 25.0625 46.75 25.0625H21.25ZM48.875 29.084L38.8703 33.8509L48.875 38.7401V29.084ZM48.8033 40.6864L36.8174 34.8291L34 36.1715L31.1826 34.8291L19.1967 40.6864C19.439 41.4069 20.2664 41.9375 21.25 41.9375H46.75C47.7336 41.9375 48.561 41.4069 48.8033 40.6864ZM19.125 38.7401L29.1297 33.8509L19.125 29.084V38.7401Z" fill="#2F5B84"/>
</svg>
