<svg width="67" height="68" viewBox="0 0 67 68" fill="none" xmlns="http://www.w3.org/2000/svg">
<ellipse cx="33.5" cy="34" rx="33.5" ry="34" fill="#116CDB" fill-opacity="0.0901961"/>
<path fill-rule="evenodd" clip-rule="evenodd" d="M50.6111 20.1912C50.8573 20.3515 51 20.591 51 20.8438V44.4688C51 44.871 50.6425 45.2172 50.1459 45.2961L39.5209 46.9836C39.3833 47.0055 39.2417 47.0055 39.1041 46.9836L28.6875 45.3292L18.2709 46.9836C17.9587 47.0332 17.6351 46.969 17.3889 46.8088C17.1427 46.6485 17 46.409 17 46.1563V22.5313C17 22.1291 17.3575 21.7828 17.8541 21.7039L28.4791 20.0164C28.6167 19.9945 28.7583 19.9945 28.8959 20.0164L39.3125 21.6708L49.7291 20.0164C50.0413 19.9668 50.3649 20.031 50.6111 20.1912ZM38.25 23.223L29.75 21.873V43.777L38.25 45.127V23.223ZM40.375 45.127L48.875 43.777V21.873L40.375 23.223V45.127ZM27.625 43.777V21.873L19.125 23.223V45.127L27.625 43.777Z" fill="#2F5B84"/>
</svg>
