<svg width="67" height="68" viewBox="0 0 67 68" fill="none" xmlns="http://www.w3.org/2000/svg">
<ellipse cx="33.5" cy="34" rx="33.5" ry="34" fill="#116CDB" fill-opacity="0.0901961"/>
<path fill-rule="evenodd" clip-rule="evenodd" d="M23.1806 20.8624C24.4329 19.6101 26.4994 19.7388 27.5867 21.1368L30.6136 25.0285C31.1691 25.7426 31.3653 26.6725 31.1459 27.5503L30.2224 31.2443C30.1249 31.6343 30.2392 32.0469 30.5234 32.3311L34.6689 36.4766C34.9532 36.7608 35.3657 36.8751 35.7557 36.7776L39.4497 35.8541C40.3275 35.6347 41.2574 35.8309 41.9715 36.3864L45.8632 39.4133C47.2612 40.5006 47.3899 42.5671 46.1376 43.8194L44.3928 45.5642C43.1445 46.8125 41.2775 47.3606 39.5375 46.7488C35.2171 45.2299 31.1618 42.7431 27.7093 39.2907C24.2569 35.8382 21.7701 31.7829 20.2512 27.4625C19.6394 25.7225 20.1875 23.8555 21.4358 22.6072L23.1806 20.8624Z" fill="#2F5B84"/>
</svg>
